<?xml version="1.0" standalone="no"?>
<!DOCTYPE svg PUBLIC "-//W3C//DTD SVG 20010904//EN"
 "http://www.w3.org/TR/2001/REC-SVG-20010904/DTD/svg10.dtd">
<svg version="1.0" xmlns="http://www.w3.org/2000/svg"
 width="468.000000pt" height="512.000000pt" viewBox="0 0 468.000000 512.000000"
 preserveAspectRatio="xMidYMid meet">

<g transform="translate(0.000000,512.000000) scale(0.100000,-0.100000)"
fill="#000000" stroke="none">
<path d="M170 5107 c-49 -16 -133 -102 -148 -153 -17 -57 -18 -4279 -1 -4339
15 -54 100 -139 154 -154 28 -7 299 -11 883 -11 l842 0 0 135 0 135 -810 0
-810 0 0 2065 0 2065 965 0 964 0 3 -572 c3 -648 0 -622 81 -659 40 -18 74
-19 614 -19 l573 0 2 -442 3 -443 138 -3 137 -3 0 541 c0 597 0 595 -61 628
-18 9 -312 289 -653 620 -341 332 -631 608 -644 613 -36 14 -2188 10 -2232 -4z
m2730 -852 l400 -375 -405 0 -405 0 0 375 c0 206 2 375 5 375 3 0 186 -169
405 -375z"/>
<path d="M819 4181 c-37 -38 -39 -88 -5 -128 l24 -28 278 -3 c198 -2 286 0
306 9 62 25 74 117 21 159 -24 19 -39 20 -310 20 l-285 0 -29 -29z"/>
<path d="M819 3521 c-37 -38 -39 -88 -5 -128 l24 -28 507 0 507 0 24 28 c34
40 33 99 -2 132 l-27 25 -499 0 -500 0 -29 -29z"/>
<path d="M819 2861 c-37 -38 -39 -88 -5 -128 l24 -28 819 -3 c602 -2 825 1
846 9 61 25 73 117 20 159 -25 20 -35 20 -850 20 l-825 0 -29 -29z"/>
<path d="M2653 2365 c-106 -33 -214 -131 -255 -233 l-23 -57 0 -885 0 -885 23
-58 c33 -81 116 -168 200 -209 l67 -33 835 -3 c814 -2 837 -2 900 18 121 37
212 128 250 249 19 61 20 90 20 921 0 831 -1 860 -20 921 -38 120 -129 211
-249 249 -61 19 -89 20 -885 19 -649 0 -830 -3 -863 -14z m940 -526 c47 -13
111 -69 140 -123 20 -37 22 -54 19 -173 -1 -85 -11 -182 -27 -275 -14 -78 -32
-197 -41 -263 -9 -66 -18 -126 -20 -132 -2 -10 -40 -13 -143 -13 l-140 0 -5
33 c-2 17 -12 84 -21 147 -9 63 -25 162 -36 220 -10 58 -22 169 -26 247 -5
122 -4 149 11 188 46 120 165 179 289 144z m77 -1209 l0 -100 -145 0 -145 0 0
100 0 100 145 0 145 0 0 -100z"/>
<path d="M819 2201 c-37 -38 -39 -88 -5 -128 l24 -28 529 0 528 0 3 93 3 92
-526 0 -527 0 -29 -29z"/>
<path d="M816 1539 c-34 -40 -34 -88 -2 -126 l24 -28 529 0 528 0 3 93 3 92
-530 0 -529 0 -26 -31z"/>
</g>
</svg>
