<?xml version="1.0" standalone="no"?>
<!DOCTYPE svg PUBLIC "-//W3C//DTD SVG 20010904//EN"
 "http://www.w3.org/TR/2001/REC-SVG-20010904/DTD/svg10.dtd">
<svg version="1.0" xmlns="http://www.w3.org/2000/svg"
 width="512.000000pt" height="404.000000pt" viewBox="0 0 512.000000 404.000000"
 preserveAspectRatio="xMidYMid meet">

<g transform="translate(0.000000,404.000000) scale(0.100000,-0.100000)"
fill="#000000" stroke="none">
<path d="M1039 4001 c-29 -29 -29 -30 -29 -154 l0 -125 -101 -4 c-99 -3 -101
-3 -130 -36 l-29 -32 0 -195 0 -195 -80 0 c-127 0 -180 -33 -180 -113 0 -44
247 -2406 256 -2452 12 -58 59 -137 106 -180 91 -81 -73 -75 1913 -75 1967 0
1820 -5 1905 67 49 42 82 92 103 155 9 25 91 598 183 1273 162 1190 166 1228
150 1262 -22 46 -66 63 -166 63 l-80 0 0 180 c0 134 -4 190 -14 215 -29 69 36
65 -1096 65 l-1020 0 0 115 c0 128 -10 163 -55 183 -19 9 -225 12 -816 12
l-791 0 -29 -29z m1471 -291 c0 -73 5 -122 14 -145 29 -69 -36 -65 1096 -65
l1020 0 0 -99 0 -99 -152 -6 c-128 -4 -3197 -37 -3440 -36 l-78 0 0 119 0 119
96 4 c94 3 96 4 125 36 29 32 29 34 29 150 0 65 3 122 7 125 3 4 294 7 645 7
l638 0 0 -110z m2370 -697 c0 -16 -70 -536 -154 -1157 -165 -1206 -157 -1162
-217 -1193 -35 -18 -3453 -18 -3488 0 -61 31 -52 -23 -181 1197 -66 624 -120
1145 -120 1158 l0 22 2080 0 2080 0 0 -27z"/>
<path d="M105 2832 c-124 -68 -127 81 19 -1312 69 -663 133 -1232 141 -1265
29 -110 104 -196 202 -231 31 -11 341 -13 1789 -14 l1750 0 94 40 c52 22 99
45 104 50 7 7 -13 34 -62 83 l-72 72 -49 -18 c-45 -16 -160 -17 -1750 -17
-1859 0 -1753 -3 -1785 57 -10 20 -55 412 -145 1278 -72 688 -134 1265 -137
1283 -2 17 -10 32 -17 32 -7 0 -43 -17 -82 -38z"/>
</g>
</svg>
